<svg width="800" height="600" xmlns="http://www.w3.org/2000/svg">
 <g>
  <title>Layer 1</title>
  <path fill="none" stroke="#000" id="svg_1" d="m342,393c-1.84775,-0.76538 -2.29291,-0.29291 -3,-1c-0.70709,-0.70709 -1,-1 -1,-2l-1,-1"/>
  <g>
   <g>
    <g>
     <path fill="#010002" d="m508.99966,88.47266c-30,-29.667 -66.33301,-44.5 -109,-44.5s-79,14.833 -109,44.5s-45,65.5 -45,107.5c0,25.33299 12.83301,67.66699 38.5,127c25.66702,59.33401 51.33301,113.33401 77,162s38.5,72.33398 38.5,71c4,-7.33398 9.5,-17.33398 16.5,-30s19.33301,-36.5 37,-71.5s33.16699,-67.16599 46.5,-96.5c13.33401,-29.332 25.66696,-59.66699 36.99997,-91s17,-55 17,-71c0,-42 -15,-77.833 -44.99997,-107.5zm-76,139.5c-9.33301,9.33299 -20.5,14 -33.5,14c-13,0 -24.16699,-4.66701 -33.5,-14s-14,-20.5 -14,-33.5s4.66702,-24 14,-33s20.5,-13.5 33.5,-13.5c13,0 24.16699,4.5 33.5,13.5s14,20 14,33s-4.66702,24.16701 -14,33.5z"/>
    </g>
   </g>
   <g/>
   <g/>
   <g/>
   <g/>
   <g/>
   <g/>
   <g/>
   <g/>
   <g/>
   <g/>
   <g/>
   <g/>
   <g/>
   <g/>
   <g/>
  </g>
 </g>

</svg>